<svg xmlns:dc="http://purl.org/dc/elements/1.1/" xmlns:cc="http://creativecommons.org/ns#" xmlns:rdf="http://www.w3.org/1999/02/22-rdf-syntax-ns#" xmlns:svg="http://www.w3.org/2000/svg" xmlns="http://www.w3.org/2000/svg" xmlns:sodipodi="http://sodipodi.sourceforge.net/DTD/sodipodi-0.dtd" xmlns:inkscape="http://www.inkscape.org/namespaces/inkscape" version="1.1" x="0px" y="0px" viewBox="0 0 100 125"><g transform="translate(0,-952.36218)"><path style="color:#000000;enable-background:accumulate;" d="m 26.971286,975.20548 c -0.05777,0.4476 0.228859,0.9164 0.653713,1.069 2.264346,0.9058 4.01889,1.2383 5.65625,1.3125 l 2.34375,9.3426 c -0.470603,0.4614 -0.689151,1.1656 -0.5625,1.8123 l -4.3125,7.3741 c -2.350398,-1.1281 -4.975633,-1.7497 -7.75,-1.7497 -9.917434,0 -18,8.08162 -18,17.99792 0,9.9163 8.082566,17.998 18,17.998 8.137392,0 15.034504,-5.4425 17.25,-12.8735 1.25058,1.1617 2.916097,1.8748 4.749996,1.8748 3.854104,0 7.000004,-3.1456 7.000004,-6.9993 0,-0.8819 -0.16848,-1.7211 -0.46875,-2.4997 l 16.5625,-15.87322 c 0.19028,0.8082 0.39321,1.6023 0.59375,2.406 -5.74539,3.0113 -9.6875,9.04952 -9.6875,15.96692 0,9.9163 8.08257,17.998 18,17.998 9.91744,0 18.000002,-8.0817 18.000002,-17.998 0,-9.9163 -8.082562,-17.99792 -18.000002,-17.99792 -1.91876,0 -3.76385,0.3152 -5.5,0.8749 -1.10977,-4.5131 -2.05697,-9.2074 -3.03125,-13.2486 l 3.40625,-2.4058 c 0.55858,-0.3634 0.81823,-1.1272 0.59681,-1.7558 -0.76011,-1.0292 -1.35033,-1.1103 -2.34681,-0.6815 l -7,4.9994 c -0.63816,0.458 -0.80195,1.4554 -0.3438,2.0935 0.45815,0.6382 1.45564,0.8018 2.0938,0.3438 l 0.9375,-0.6562 c 0.18645,0.7988 0.37332,1.5938 0.5625,2.4372 l -28.84375,0 -2.1875,-8.7802 c 1.386388,-0.07 2.817432,-0.2188 4.65625,-0.2188 0.528313,0.01 1.014242,-0.4715 1.014242,-0.9999 0,-0.5283 -0.485929,-1.0073 -1.014242,-0.9998 -2.566667,0 -4.345238,0.25 -6,0.25 -1.654762,0 -3.221049,-0.226 -5.625,-1.1875 -0.758762,-0.2205 -1.307602,0.1027 -1.403713,0.7745 z m 12.778713,15.1613 26.34375,0 -17,16.31062 c -0.48664,-0.3526 -1.02495,-0.6243 -1.59375,-0.8437 l 0.3125,-1.4686 1.1875,0 0,-1.9997 -4.000004,0 0,1.9997 0.750004,0 -0.21875,1.0312 c -0.33655,-0.058 -0.655512,-0.01 -0.96875,0 z m -3.5,2.2185 4.53125,14.18582 c -0.186612,0.1416 -0.359853,0.3095 -0.53125,0.4687 -1.1726,-3.9331 -3.650913,-7.31742 -6.9375,-9.62392 z m -14.25,5.8118 0,11.15502 c -0.574464,0.2074 -1.087045,0.5751 -1.4375,1.0624 l -10.71875,-3.0622 c 1.843711,-5.0763 6.530695,-8.76102 12.15625,-9.15522 z m 2,0 c 1.671036,0.1171 3.263064,0.5388 4.71875,1.1874 l -4.71875,8.09282 z m 52,0 0,9.90512 c -1.29479,-2.4131 -2.49644,-5.6483 -3.5,-9.21772 1.10478,-0.371 2.28943,-0.6026 3.5,-0.6874 z m 2,0 c 5.79787,0.4063 10.59377,4.30642 12.312502,9.62392 l -10.625002,2.9996 c -0.34122,-0.6908 -0.95595,-1.2043 -1.6875,-1.4685 z m -8.25,1.99972 c 1.15188,4.0433 2.48303,7.7506 4.28125,10.5614 l -10.34375,-2.9372 c 1.04222,-3.2245 3.21805,-5.9033 6.0625,-7.6242 z m -38.4375,0.6876 c 2.194419,1.6174 3.8953,3.8565 4.84375,6.4679 l -10.34375,2.9684 z m 15.71875,6.7492 c 0.19021,0.085 0.38596,0.1739 0.5625,0.2811 l -0.78125,0.7499 z m -5.59375,1.031 0.65625,1.9998 -1.15625,0 c -0.03321,-0.4005 -0.09707,-0.7944 -0.15625,-1.1874 0.188638,-0.2971 0.410814,-0.5626 0.65625,-0.8124 z m -32.15625,0.5938 10.75,3.0621 c 0.03309,0.614 0.214629,1.1635 0.5625,1.6248 l -6.1875,9.2802 c -3.291804,-2.5569 -5.40625,-6.5523 -5.40625,-11.0613 0,-0.9904 0.08737,-1.9745 0.28125,-2.9058 z m 27.4375,0 c 0.0949,0.4557 0.169094,0.9348 0.21875,1.406 l -5.125,0 z m 26.5,0.4999 10.875,3.0934 c 0.12038,0.5023 0.34983,0.9437 0.6875,1.3123 l -6.15625,9.2178 c -3.41633,-2.5481 -5.625,-6.6098 -5.625,-11.2176 0,-0.8188 0.0851,-1.6264 0.21875,-2.4059 z m 27.562502,0 c 0.13367,0.7795 0.21875,1.5871 0.21875,2.4059 0,4.6078 -2.208672,8.6695 -5.625002,11.2176 l -6.15625,-9.2178 c 0.33767,-0.3686 0.56712,-0.81 0.6875,-1.3123 z m -40.875002,1.4686 c 0.0586,0.3075 0.0937,0.612 0.0937,0.9373 0,2.773 -2.2267,4.9995 -5.000004,4.9995 -1.782832,0 -3.334045,-0.9184 -4.218746,-2.3122 0.05918,-0.3929 0.123036,-0.7869 0.15625,-1.1874 l 1.5,0 c 0.522954,0.8795 1.464834,1.4998 2.562496,1.4998 1.407034,0.029 2.393534,-0.9818 2.781254,-1.9055 z m -24.34375,2.4372 11.375,0 c -0.410353,3.8905 -2.421468,7.2916 -5.34375,9.5614 l -6.1875,-9.2802 c 0.06606,-0.088 0.09995,-0.1865 0.15625,-0.2812 z m -3.3125,1.3748 c 0.529718,0.194 1.005232,0.082 1.5,0 l 6.15625,9.2802 c -2.03805,1.1553 -4.3871,1.8436 -6.90625,1.8436 -2.51915,0 -4.8682,-0.6883 -6.90625,-1.8436 z m 54.3125,0.094 c 0.30107,0.064 0.59632,0.01 0.875,0 l 6.25,9.3427 c -1.98402,1.075 -4.26386,1.6873 -6.6875,1.6873 -2.42363,0 -4.70348,-0.6123 -6.6875,-1.6873 z" fill="#000000" stroke="none" marker="none" visibility="visible" display="inline" overflow="visible"/></g><text x="0" y="115" fill="#000000" font-size="5px" font-weight="bold" font-family="'Helvetica Neue', Helvetica, Arial-Unicode, Arial, Sans-serif">Created by sandra</text><text x="0" y="120" fill="#000000" font-size="5px" font-weight="bold" font-family="'Helvetica Neue', Helvetica, Arial-Unicode, Arial, Sans-serif">from the Noun Project</text></svg>